COMMAND:
C:\Users\NIT\anaconda3\Lib\site-packages\imageio_ffmpeg\binaries\ffmpeg-win-x86_64-v7.1.exe -y -f concat -safe 0 -i outputs\runs\run_long_20260318_220725/stitched_video/concat_list.txt -r 8 -an -c:v libx264 -pix_fmt yuv420p -movflags +faststart outputs\runs\run_long_20260318_220725/stitched_video/stitched_video.mp4

STDOUT:



STDERR:

ffmpeg version 7.1-essentials_build-www.gyan.dev Copyright (c) 2000-2024 the FFmpeg developers
  built with gcc 14.2.0 (Rev1, Built by MSYS2 project)
  configuration: --enable-gpl --enable-version3 --enable-static --disable-w32threads --disable-autodetect --enable-fontconfig --enable-iconv --enable-gnutls --enable-libxml2 --enable-gmp --enable-bzlib --enable-lzma --enable-zlib --enable-libsrt --enable-libssh --enable-libzmq --enable-avisynth --enable-sdl2 --enable-libwebp --enable-libx264 --enable-libx265 --enable-libxvid --enable-libaom --enable-libopenjpeg --enable-libvpx --enable-mediafoundation --enable-libass --enable-libfreetype --enable-libfribidi --enable-libharfbuzz --enable-libvidstab --enable-libvmaf --enable-libzimg --enable-amf --enable-cuda-llvm --enable-cuvid --enable-dxva2 --enable-d3d11va --enable-d3d12va --enable-ffnvcodec --enable-libvpl --enable-nvdec --enable-nvenc --enable-vaapi --enable-libgme --enable-libopenmpt --enable-libopencore-amrwb --enable-libmp3lame --enable-libtheora --enable-libvo-amrwbenc --enable-libgsm --enable-libopencore-amrnb --enable-libopus --enable-libspeex --enable-libvorbis --enable-librubberband
  libavutil      59. 39.100 / 59. 39.100
  libavcodec     61. 19.100 / 61. 19.100
  libavformat    61.  7.100 / 61.  7.100
  libavdevice    61.  3.100 / 61.  3.100
  libavfilter    10.  4.100 / 10.  4.100
  libswscale      8.  3.100 /  8.  3.100
  libswresample   5.  3.100 /  5.  3.100
  libpostproc    58.  3.100 / 58.  3.100
[mov,mp4,m4a,3gp,3g2,mj2 @ 000001847ec2ea40] Auto-inserting h264_mp4toannexb bitstream filter
Input #0, concat, from 'outputs\runs\run_long_20260318_220725/stitched_video/concat_list.txt':
  Duration: N/A, start: 0.000000, bitrate: 199 kb/s
  Stream #0:0(und): Video: h264 (High) (avc1 / 0x31637661), yuv420p(progressive), 512x320, 199 kb/s, 8 fps, 8 tbr, 16384 tbn
      Metadata:
        handler_name    : VideoHandler
        vendor_id       : [0][0][0][0]
        encoder         : Lavc61.19.100 libx264
Stream mapping:
  Stream #0:0 -> #0:0 (h264 (native) -> h264 (libx264))
Press [q] to stop, [?] for help
[mov,mp4,m4a,3gp,3g2,mj2 @ 000001847ee9f480] Auto-inserting h264_mp4toannexb bitstream filter
[mov,mp4,m4a,3gp,3g2,mj2 @ 000001847f2d9e00] Auto-inserting h264_mp4toannexb bitstream filter
[libx264 @ 000001847ec36680] using cpu capabilities: MMX2 SSE2Fast SSSE3 SSE4.2 AVX FMA3 BMI2 AVX2 AVX512
[libx264 @ 000001847ec36680] profile High, level 2.1, 4:2:0, 8-bit
[libx264 @ 000001847ec36680] 264 - core 164 r3192 c24e06c - H.264/MPEG-4 AVC codec - Copyleft 2003-2024 - http://www.videolan.org/x264.html - options: cabac=1 ref=3 deblock=1:0:0 analyse=0x3:0x113 me=hex subme=7 psy=1 psy_rd=1.00:0.00 mixed_ref=1 me_range=16 chroma_me=1 trellis=1 8x8dct=1 cqm=0 deadzone=21,11 fast_pskip=1 chroma_qp_offset=-2 threads=10 lookahead_threads=1 sliced_threads=0 nr=0 decimate=1 interlaced=0 bluray_compat=0 constrained_intra=0 bframes=3 b_pyramid=2 b_adapt=1 b_bias=0 direct=1 weightb=1 open_gop=0 weightp=2 keyint=250 keyint_min=8 scenecut=40 intra_refresh=0 rc_lookahead=40 rc=crf mbtree=1 crf=23.0 qcomp=0.60 qpmin=0 qpmax=69 qpstep=4 ip_ratio=1.40 aq=1:1.00
Output #0, mp4, to 'outputs\runs\run_long_20260318_220725/stitched_video/stitched_video.mp4':
  Metadata:
    encoder         : Lavf61.7.100
  Stream #0:0(und): Video: h264 (avc1 / 0x31637661), yuv420p(tv, progressive), 512x320, q=2-31, 8 fps, 16384 tbn
      Metadata:
        handler_name    : VideoHandler
        vendor_id       : [0][0][0][0]
        encoder         : Lavc61.19.100 libx264
      Side data:
        cpb: bitrate max/min/avg: 0/0/0 buffer size: 0 vbv_delay: N/A
[mov,mp4,m4a,3gp,3g2,mj2 @ 000001847f2d9b40] Auto-inserting h264_mp4toannexb bitstream filter
[mp4 @ 000001847ec2f880] Starting second pass: moving the moov atom to the beginning of the file
[out#0/mp4 @ 000001847ec62dc0] video:138KiB audio:0KiB subtitle:0KiB other streams:0KiB global headers:0KiB muxing overhead: 0.889494%
frame=   36 fps=0.0 q=-1.0 Lsize=     139KiB time=00:00:04.25 bitrate= 267.7kbits/s speed=28.4x    
[libx264 @ 000001847ec36680] frame I:4     Avg QP:19.13  size: 14052
[libx264 @ 000001847ec36680] frame P:12    Avg QP:22.83  size:  3944
[libx264 @ 000001847ec36680] frame B:20    Avg QP:24.41  size:  1838
[libx264 @ 000001847ec36680] consecutive B-frames: 19.4% 11.1% 25.0% 44.4%
[libx264 @ 000001847ec36680] mb I  I16..4: 11.1% 67.2% 21.7%
[libx264 @ 000001847ec36680] mb P  I16..4:  5.1% 24.2%  2.5%  P16..4: 29.4% 14.9%  5.8%  0.0%  0.0%    skip:18.0%
[libx264 @ 000001847ec36680] mb B  I16..4:  1.4%  5.3%  0.5%  B16..8: 42.0% 10.2%  1.4%  direct: 2.6%  skip:36.7%  L0:44.4% L1:46.7% BI: 8.8%
[libx264 @ 000001847ec36680] 8x8 transform intra:71.7% inter:83.6%
[libx264 @ 000001847ec36680] coded y,uvDC,uvAC intra: 67.4% 71.2% 36.7% inter: 18.2% 19.5% 1.4%
[libx264 @ 000001847ec36680] i16 v,h,dc,p: 33% 34%  5% 28%
[libx264 @ 000001847ec36680] i8 v,h,dc,ddl,ddr,vr,hd,vl,hu: 31% 23% 10%  3%  6% 10%  5%  7%  5%
[libx264 @ 000001847ec36680] i4 v,h,dc,ddl,ddr,vr,hd,vl,hu: 33% 22%  7%  3%  8% 12%  5%  6%  4%
[libx264 @ 000001847ec36680] i8c dc,h,v,p: 39% 20% 31%  9%
[libx264 @ 000001847ec36680] Weighted P-Frames: Y:0.0% UV:0.0%
[libx264 @ 000001847ec36680] ref P L0: 78.4% 11.1%  7.9%  2.6%
[libx264 @ 000001847ec36680] ref B L0: 88.1% 10.9%  1.0%
[libx264 @ 000001847ec36680] ref B L1: 97.1%  2.9%
[libx264 @ 000001847ec36680] kb/s:249.40
